<svg xmlns="http://www.w3.org/2000/svg" viewBox="0 0 64 64" fill="none">
  <defs>
    <linearGradient id="bg" x1="6" y1="4" x2="58" y2="60" gradientUnits="userSpaceOnUse">
      <stop stop-color="#6D28D9"/>
      <stop offset="1" stop-color="#1E3A8A"/>
    </linearGradient>
    <linearGradient id="flow" x1="19" y1="24" x2="49" y2="35" gradientUnits="userSpaceOnUse">
      <stop stop-color="#A5B4FC"/>
      <stop offset="1" stop-color="#06B6D4"/>
    </linearGradient>
  </defs>
  <rect x="2" y="2" width="60" height="60" rx="16" fill="url(#bg)"/>
  <rect x="2" y="2" width="60" height="60" rx="16" fill="#fff" fill-opacity=".03"/>
  <rect x="12" y="16" width="18" height="6" rx="3" fill="#E9D5FF"/>
  <rect x="12" y="29" width="18" height="6" rx="3" fill="#06B6D4"/>
  <rect x="12" y="42" width="18" height="6" rx="3" fill="#C4B5FD" fill-opacity=".75"/>
  <path d="M30 19C36.5 24 36.5 24 42 32" stroke="url(#flow)" stroke-width="2.6" stroke-linecap="round"/>
  <path d="M30 32H42" stroke="#22D3EE" stroke-width="2.8" stroke-linecap="round"/>
  <path d="M30 45C36.5 40 36.5 40 42 32" stroke="url(#flow)" stroke-width="2.6" stroke-linecap="round"/>
  <circle cx="43" cy="32" r="2.6" fill="#E0F2FE"/>
  <path d="M44 24L52 32L44 40L46.5 32L44 24Z" fill="#10B981"/>
</svg>
